<svg xmlns="http://www.w3.org/2000/svg" viewBox="0 0 1077.96 229.68"><defs><style>.cls-1,.cls-5{fill:#fff;}.cls-1,.cls-2{stroke:#1d1d1b;}.cls-1,.cls-2,.cls-3{stroke-miterlimit:10;}.cls-1{stroke-width:5px;}.cls-2,.cls-4{fill:#1d1d1b;}.cls-3{fill:#e30613;stroke:#e30613;}</style></defs><title>Recurso 3</title><g id="Capa_2" data-name="Capa 2"><g id="Capa_1-2" data-name="Capa 1"><rect class="cls-1" x="2.5" y="2.5" width="276.48" height="224.64" rx="52.8"/><ellipse class="cls-2" cx="135.52" cy="137.32" rx="109.62" ry="63.3"/><ellipse class="cls-3" cx="134.46" cy="173.98" rx="58.04" ry="23.04"/><rect class="cls-4" x="91.42" y="139.78" width="97.92" height="16.92"/><rect class="cls-5" x="20.5" y="69.46" width="238.68" height="63.12"/><ellipse class="cls-2" cx="207.62" cy="69.46" rx="30.72" ry="25.68"/><ellipse class="cls-5" cx="192.5" cy="82.18" rx="11.28" ry="8.16"/><ellipse class="cls-5" cx="222.32" cy="54.28" rx="11.82" ry="8.22"/><ellipse class="cls-2" cx="73.54" cy="69.46" rx="30.72" ry="25.68"/><ellipse class="cls-5" cx="58.42" cy="82.18" rx="11.28" ry="8.16"/><ellipse class="cls-5" cx="88.24" cy="54.28" rx="11.82" ry="8.22"/><path class="cls-4" d="M313.24,19.48h27.37v101.2q17.65-29.59,50.6-29.59,25.46,0,44.15,20.36t18.7,48.37a71.8,71.8,0,0,1-18.38,48.93q-18.37,20.92-42.88,20.93a57.58,57.58,0,0,1-29.91-8.44,60.73,60.73,0,0,1-22.28-22.91V226H313.24ZM424.78,159.82A41.82,41.82,0,0,0,411.89,129a42.59,42.59,0,0,0-31.18-12.81q-17.67,0-30.63,13t-13,30.63q0,18.47,13,31.11T382,203.58q17.5,0,30.15-12.89A42.48,42.48,0,0,0,424.78,159.82Z"/><path class="cls-4" d="M483.66,51.62A20.22,20.22,0,0,1,490,36.75a20.78,20.78,0,0,1,15.12-6.29A20.36,20.36,0,0,1,520,36.75a20.85,20.85,0,0,1,0,29.83,20.48,20.48,0,0,1-14.88,6.21A20.9,20.9,0,0,1,490,66.58,20.14,20.14,0,0,1,483.66,51.62Zm7.79,43.13h27.37V226H491.45Z"/><path class="cls-4" d="M557.65,226V94.75H585V115q9.71-12.4,18.54-18.14a36.52,36.52,0,0,1,20.29-5.72q15,0,23.47,6.52t14.4,20.84q10.38-14.31,20-20.84a39.18,39.18,0,0,1,22.45-6.52q15.66,0,27,11.69a38.53,38.53,0,0,1,11.34,27.77V226H714.85V137.71q0-21.79-21.54-21.8-12.3,0-20.84,11.14t-8.53,27.52V226H636.25V141.37q0-25.78-21.16-25.78-12.57,0-21.32,10.5T585,152v74Z"/><path class="cls-4" d="M908.66,165.71h-112q3.66,20.21,16.63,29.52a47.45,47.45,0,0,0,28.24,9.31q23.55,0,39.46-19.58l20.21,15.28q-22.75,29.44-60.94,29.44-29.28,0-49-20.05T771.5,159.82q0-27.84,20-48.29t48.77-20.44q28.32,0,48.53,20.76T908.66,165.71ZM799.5,143.59h80.2q-13.37-27-39.46-27Q811.76,116.54,799.5,143.59Z"/><path class="cls-4" d="M1050.59,19.48H1078V226h-27V198.65q-19.61,31-51.31,31-25.65,0-44-20.53T937.3,159.82q0-28.15,18.64-48.45t44.46-20.28a52.39,52.39,0,0,1,28.84,8.59,64.6,64.6,0,0,1,21.35,22.43Zm3.18,140.66q0-17.65-12.91-30.63t-30.76-13q-18.5,0-31.33,12.65a41.82,41.82,0,0,0-12.83,30.95q0,17.51,13.07,30.63t30.45,13.13a43,43,0,0,0,31.4-12.73A41.92,41.92,0,0,0,1053.77,160.14Z"/></g></g></svg>